<svg version="1.1" xmlns="http://www.w3.org/2000/svg" xmlns:xlink="http://www.w3.org/1999/xlink" width="242.69481" height="145.78288" viewBox="0,0,242.69481,145.78288"><g transform="translate(-276.85864,-33.44654)"><g data-paper-data="{&quot;isPaintingLayer&quot;:true}" fill-rule="nonzero" stroke="none" stroke-width="0.5" stroke-linecap="butt" stroke-linejoin="miter" stroke-miterlimit="10" stroke-dasharray="" stroke-dashoffset="0" style="mix-blend-mode: normal"><path d="M479.76777,34.23224c1.76776,1.76776 0,3.53553 0,3.53553l-2.5025,2.38842c-6.18173,1.81253 -11.87438,7.53607 -16.63044,11.73521c-3.44581,3.04232 -7.85181,4.59687 -11.4318,7.40588c-1.36216,1.06881 -2.29955,2.64583 -3.7442,3.60021c-2.86444,1.89234 -6.27037,2.80285 -9.34078,4.33859c-5.3158,2.65883 -10.7004,5.98685 -16.25067,8.10864c-2.43858,0.93224 -5.04946,1.33796 -7.53523,2.13591c-15.45463,4.95352 -32.07719,8.20171 -46.62792,15.60483c-2.96798,1.51005 -5.6326,3.56447 -8.56609,5.14046c-2.07702,1.11586 -4.66864,1.261 -6.53939,2.69608c-0.93491,0.71718 -1.04428,2.19163 -1.94424,2.95221c-0.68611,0.57985 -7.58262,3.7774 -8.27879,4.21325c-3.53303,2.21189 -6.68946,5.75923 -9.60795,8.68032c-3.6307,3.6307 -7.46917,7.13085 -10.92764,10.92455c-3.70988,4.06948 -6.94043,8.64273 -11.20212,12.19631c-4.67964,3.90207 -10.19481,7.03661 -15.32368,10.23799c-1.21485,0.7583 -2.68752,1.06867 -3.85255,1.90148c-1.18268,0.84543 -1.88425,2.27041 -3.09958,3.06819c-1.19279,0.78297 -2.70333,0.93887 -3.97887,1.57825c-1.05777,0.53023 -2.00765,1.26559 -3.01418,1.8889c-0.12349,-0.12943 -0.24936,-0.26023 -0.37768,-0.39243c-1.08124,-1.11393 -1.63419,-2.4909 -2.13283,-3.89938c1.13338,-0.65267 2.16066,-1.50662 3.33298,-2.09114c1.09632,-0.54662 2.42524,-0.59977 3.4462,-1.27679c1.14568,-0.75973 1.7815,-2.1332 2.90042,-2.93181c1.2611,-0.9001 2.83404,-1.27661 4.14745,-2.09852c4.89628,-3.064 10.20176,-6.03575 14.67632,-9.76201c4.11606,-3.42772 7.2153,-7.87606 10.79788,-11.80369c3.50693,-3.8447 7.39213,-7.39521 11.07236,-11.07545c3.16555,-3.16284 6.5725,-6.91199 10.39205,-9.31968c2.42501,-1.52863 5.57098,-1.891 7.72121,-3.78675c0.9192,-0.81042 1.0718,-2.31738 2.05576,-3.04779c2.62565,-1.94907 4.88239,-1.91249 7.46061,-3.30392c1.10066,-0.59401 7.60146,-4.65081 8.58376,-5.14946c14.80917,-7.5175 31.64036,-10.86463 47.36007,-15.90533c2.41652,-0.77375 4.95631,-1.15938 7.32693,-2.06403c5.37957,-2.0529 10.59704,-5.3161 15.74933,-7.89136c2.88947,-1.44423 6.12478,-2.23994 8.81207,-4.03251c1.33268,-0.88896 2.16388,-2.38371 3.42587,-3.37045c1.24089,-0.97024 7.2478,-4.40515 8.66893,-5.3382c6.57283,-4.31542 12.15666,-12.0582 19.9459,-14.17896l1.4975,-1.61158c0,0 1.76776,-1.76776 3.53553,0z" fill="#ffc366"/><path d="M518.76777,58.23224c1.76777,1.76776 0,3.53553 0,3.53553l-2.16225,1.6578c-4.46501,1.07381 -7.41875,3.73976 -11.47623,5.80485c-4.38806,2.23333 -8.58346,4.26098 -12.79844,6.88592c-3.75378,2.33773 -7.38891,5.62575 -11.39353,7.46751c-1.49728,0.68861 -3.27574,0.61742 -4.76201,1.3295c-2.92633,1.40202 -5.10721,4.02508 -7.85996,5.74307c-0.94402,0.58916 -7.80795,4.08124 -8.87376,4.71676c-4.2552,2.53727 -8.12969,5.76755 -12.08791,8.72863c-8.16793,4.49419 -15.95018,9.81871 -24.20074,14.11648c-2.89407,1.50754 -6.0547,2.46206 -8.94755,3.97194c-5.2717,2.75149 -9.83104,6.97499 -14.96696,9.98148c-3.87351,2.2675 -8.3005,3.58781 -12.17263,5.85377c-4.84602,2.83587 -5.3911,7.51266 -9.4761,10.90401c-3.35323,2.78384 -9.54672,4.3774 -13.72233,5.41524c-1.06074,0.53578 -7.61413,3.85523 -7.99798,3.99925c-6.09458,2.28657 -12.87079,3.02802 -19.08645,5.03027c-7.47152,2.4068 -14.7247,5.24495 -22.3907,7.09485c-3.17192,0.76542 -6.47096,0.98499 -9.60218,1.90279c-2.46296,0.72192 -4.5713,2.34699 -6.94072,3.33348c-2.46775,1.02743 -4.92272,1.88832 -7.35943,2.80981c-0.20429,-0.44335 -0.41079,-0.87262 -0.61402,-1.28483c-0.58126,-1.17896 -1.07018,-2.25155 -1.50016,-3.2443c2.50171,-0.95232 5.02118,-1.843 7.5518,-2.8966c2.48125,-1.03305 4.70729,-2.69159 7.28242,-3.46133c0.69891,-0.20892 9.10264,-1.80072 10.00943,-2.01953c7.53415,-1.81796 14.65539,-4.61701 21.99768,-6.98283c6.15181,-1.98222 12.88654,-2.70541 18.91355,-4.96973c2.79163,-1.0488 5.33001,-2.67655 8.00202,-4.00075c2.88671,-0.72575 5.69015,-1.78649 8.42108,-2.97051c1.2786,-0.55435 2.78544,-0.72276 3.85659,-1.61425c2.49716,-2.07831 3.25358,-5.71183 5.54302,-8.01698c1.32416,-1.33325 2.94543,-2.35111 4.55334,-3.32353c3.8651,-2.33751 8.36019,-3.61676 12.25491,-5.90173c5.16033,-3.02748 9.73611,-7.23887 15.03304,-10.01851c2.92451,-1.53468 6.12339,-2.50208 9.05245,-4.02806c8.11837,-4.22952 15.73993,-9.4969 23.79926,-13.88352c4.00311,-3.01058 7.9235,-6.24379 12.2326,-8.81838c2.84733,-1.70122 5.97537,-2.90902 8.78919,-4.66513c0.97712,-0.60981 7.54422,-5.61841 8.32836,-6.00165c1.51414,-0.74001 3.32933,-0.68255 4.86457,-1.37772c3.79636,-1.71905 7.25476,-4.9382 10.80811,-7.15165c4.3386,-2.70259 8.68036,-4.82015 13.20156,-7.11408c4.40402,-2.23446 7.6703,-4.94737 12.52377,-6.19515l-0.16225,-0.3422c0,0 1.76777,-1.76776 3.53553,0z" fill="#ffc366"/><path d="M295.81061,177.89113c-1.1813,-2.2033 1.022,-3.3846 1.022,-3.3846l1.76264,-0.94504c4.75417,-2.54894 10.84871,-4.69924 14.54335,-8.64361c0.65301,-1.16213 1.02878,-2.53162 1.95904,-3.48638c0.53313,-0.54718 1.83981,-0.05719 2.16644,-0.74781c0.32931,-0.69628 -0.79184,-1.40307 -0.78491,-2.17326c0.00735,-0.81637 0.88765,-1.49198 0.82524,-2.306c-0.0523,-0.68204 -0.80999,-1.10801 -1.13321,-1.71087c-0.32322,-0.60286 -0.2575,-1.47118 -0.79778,-1.89071c-0.66898,-0.51949 -1.76738,-0.1503 -2.45944,-0.63862c-1.1886,-0.83868 -1.84693,-2.27388 -2.97316,-3.19462c-1.95748,-1.60034 -7.39519,-3.54195 -9.91965,-3.62812c-1.05348,-0.03596 -2.06361,0.5871 -3.11648,0.53624c-0.94171,-0.04549 -1.76604,-0.77061 -2.70768,-0.8176c-0.97215,-0.04852 -1.89694,0.50997 -2.86985,0.53921c-3.83049,0.11513 -4.85672,-0.56641 -8.2613,1.31374c0,0 -2.2033,1.1813 -3.3846,-1.022c-1.1813,-2.2033 1.022,-3.3846 1.022,-3.3846c3.96747,-2.07891 6.14107,-1.78738 10.43759,-1.90367c1.13463,-0.03071 2.22931,-0.58636 3.36311,-0.53326c0.94177,0.04411 1.76597,0.77211 2.70768,0.8176c1.05287,0.05087 2.06428,-0.59933 3.11648,-0.53624c3.58482,0.21496 9.91762,2.51115 12.68681,4.67535c1.01978,0.79699 1.51289,2.1636 2.56963,2.91091c0.84897,0.60036 2.1753,0.30969 2.95591,0.99659c0.54297,0.47778 3.64351,6.25669 3.73924,6.97426c0.14162,1.06164 -0.73212,2.04116 -0.80996,3.10936c-0.0986,1.35304 0.85555,2.8277 0.28756,4.0597c-0.52405,1.13671 -2.27443,1.16576 -3.12149,2.0873c-0.72501,0.78876 -0.95921,1.91601 -1.43881,2.87401c-4.4128,4.64743 -10.61443,7.11401 -16.23916,10.1297l-1.76264,0.94504c0,0 -2.2033,1.1813 -3.3846,-1.022z" fill="#000000"/></g></g></svg>