<svg version="1.1" xmlns="http://www.w3.org/2000/svg" xmlns:xlink="http://www.w3.org/1999/xlink" width="42.89903" height="100.31667" viewBox="0,0,42.89903,100.31667"><g transform="translate(-207.45433,-124.44318)"><g data-paper-data="{&quot;isPaintingLayer&quot;:true}" fill="#000000" fill-rule="nonzero" stroke="none" stroke-width="0.5" stroke-linecap="butt" stroke-linejoin="miter" stroke-miterlimit="10" stroke-dasharray="" stroke-dashoffset="0" style="mix-blend-mode: normal"><path d="M239.23694,213.54426c0.03497,0.15202 0.09716,0.28986 0.20318,0.40504c0.03583,-0.01084 0.07185,-0.02184 0.10804,-0.033l0.34194,-0.34194c-0.21916,-0.0049 -0.4373,-0.0136 -0.65316,-0.0301zM243.68426,219.74678c0.01965,-0.00091 0.03926,-0.00212 0.05885,-0.00367l-0.02961,-0.02961c-0.0097,0.01113 -0.01945,0.02222 -0.02924,0.03328zM244.04329,219.6903c0.83757,-0.23737 1.25063,-0.83938 1.37063,-1.56869l-1.61632,1.61632c0.08251,-0.0092 0.16445,-0.02461 0.24569,-0.04763zM228.13278,205.34489c3.76362,1.03901 7.44207,2.57093 11.26767,3.18739c2.31768,0.37348 4.91642,0.10767 6.91387,1.34109c5.15467,3.18299 5.73421,11.71322 -0.35762,14.43633c-1.20547,0.53886 -2.63781,0.12687 -3.95671,0.1903c-3.94852,0 -8.50503,0.60514 -12.39581,-0.03153c-5.24581,-0.85841 -10.65508,-2.73084 -15.59291,-4.72509c-2.08166,-0.84072 -4.91739,-0.75037 -6.22253,-2.57704c-0.97425,-1.36355 0.45182,-3.32655 0.83954,-4.95692c0.76488,-3.21628 3.11595,-8.13209 6.415,-9.51913c0.68442,-0.28776 5.47252,-0.16254 6.65125,-0.17157c0.77853,-0.00596 1.73915,0.44391 2.33494,-0.05726c0.39651,-0.33354 -0.46842,-0.94694 -0.52949,-1.46147c-0.11785,-0.99303 0,-2 0,-3c0,-3 0,-6 0,-9c0,-6.20193 -0.85731,-13.17231 0.01873,-19.30546c0.34762,-2.43369 1.60192,-4.67131 2.01355,-7.095c0.76928,-4.52959 -1.17892,-9.72681 0.0346,-14.17393c0.39243,-1.43813 1.57054,-2.57249 2,-4c1.38112,-4.59079 -1.47612,-10.52087 0.04039,-15.15008c0.44947,-1.37203 1.54174,-2.44153 2.3126,-3.66229c0,0 1.38675,-2.08013 3.46688,-0.69338c2.08013,1.38675 0.69338,3.46688 0.69338,3.46688c-3.63298,5.03311 -0.08231,11.45356 -1.647,17.18763c-0.39243,1.43813 -1.57054,2.57249 -2,4c-1.24315,4.13216 0.74609,9.49192 0.0346,13.82607c-0.38797,2.36339 -1.64769,4.53406 -1.98645,6.905c-0.84522,5.91556 0.01873,12.70884 0.01873,18.69454c0,3.96381 0.27763,8.04723 0,12c-0.1007,1.43377 0.45428,3.22261 -0.36722,4.34489zM234.24996,214.03667c-0.18447,-0.22855 -0.39949,-0.41391 -0.66094,-0.53546c-0.1214,0.0001 -0.24279,0.0002 -0.36419,0.00031c0.34083,0.2139 0.67665,0.39207 1.01506,0.53507c0.00336,0.00003 0.00671,0.00006 0.01007,0.00008z"/></g></g></svg>