<svg version="1.1" xmlns="http://www.w3.org/2000/svg" xmlns:xlink="http://www.w3.org/1999/xlink" width="42.88269" height="99.87056" viewBox="0,0,42.88269,99.87056"><g transform="translate(-208.55796,-129.96663)"><g data-paper-data="{&quot;isPaintingLayer&quot;:true}" fill="#000000" fill-rule="nonzero" stroke="none" stroke-width="0.5" stroke-linecap="butt" stroke-linejoin="miter" stroke-miterlimit="10" stroke-dasharray="" stroke-dashoffset="0" style="mix-blend-mode: normal"><path d="M220.01558,141.78053c-0.04887,-0.14814 -0.12354,-0.27964 -0.23975,-0.38453c-0.03468,0.0141 -0.06952,0.02839 -0.10453,0.04285l-0.30887,0.37208c0.21867,-0.01537 0.43668,-0.02688 0.65315,-0.0304zM215.01401,136.01562c-0.01948,0.00272 -0.0389,0.00574 -0.05825,0.0091l0.03222,0.02675c0.00863,-0.01198 0.01731,-0.02393 0.02603,-0.03584zM214.66174,136.10505c-0.81204,0.31377 -1.1677,0.95138 -1.21977,1.68865l1.46,-1.75879c-0.08131,0.01679 -0.16147,0.0397 -0.24023,0.07013zM231.83006,148.91847c-3.84354,-0.6867 -7.64784,-1.87206 -11.51404,-2.13229c-2.34228,-0.15766 -4.90533,0.3472 -7.00823,-0.69632c-5.4268,-2.69293 -6.7923,-11.13307 -0.97824,-14.40758c1.1505,-0.64797 2.61479,-0.37013 3.92218,-0.5552c3.93162,-0.36495 8.41269,-1.38866 12.34566,-1.11433c5.3027,0.36987 10.86188,1.73431 15.96289,3.26363c2.15046,0.64472 4.96569,0.29266 6.43409,1.99087c1.09611,1.26766 -0.14241,3.35407 -0.37779,5.01329c-0.46433,3.27321 -2.35098,8.38529 -5.5077,10.07131c-0.6549,0.34978 -5.43408,0.66766 -6.60692,0.7856c-0.77464,0.0779 -1.77274,-0.28126 -2.31966,0.27283c-0.36398,0.36876 0.55394,0.89959 0.6623,1.40627c0.20913,0.97789 0.18486,1.99144 0.27728,2.98716c0.27728,2.98716 0.55457,5.97432 0.83185,8.96147c0.57323,6.17538 2.07113,13.03669 1.76572,19.22455c-0.12119,2.45541 -1.16331,4.79937 -1.34915,7.25073c-0.34733,4.5813 2.07291,9.5762 1.27562,14.11645c-0.25783,1.46825 -1.32605,2.70664 -1.62173,4.16773c-0.95089,4.69879 2.44223,10.3394 1.36008,15.08896c-0.32074,1.40771 -1.30947,2.57357 -1.96421,3.86036c0,0 -1.18855,2.1994 -3.38795,1.01084c-2.1994,-1.18855 -1.01084,-3.38795 -1.01084,-3.38795c3.15223,-5.34736 -0.97668,-11.41214 0.05133,-17.26629c0.25783,-1.46825 1.32605,-2.70664 1.62173,-4.16773c0.85589,-4.22938 -1.62022,-9.38233 -1.31237,-13.76369c0.16787,-2.38913 1.22156,-4.66695 1.33973,-7.05905c0.29484,-5.96837 -1.19331,-12.65271 -1.74655,-18.61278c-0.36637,-3.94684 -1.02023,-7.98712 -1.10914,-11.94863c-0.03225,-1.43694 -0.7502,-3.16683 -0.03595,-4.36023zM224.93571,140.8293c0.20481,0.21053 0.43604,0.37522 0.7076,0.47208c0.12087,-0.01132 0.24174,-0.02265 0.3626,-0.03397c-0.35914,-0.18149 -0.70999,-0.32785 -1.06017,-0.43895c-0.00334,0.00029 -0.00669,0.00057 -0.01003,0.00085z"/></g></g></svg>